<svg width="119" height="110" viewBox="0 0 119 110" fill="none" xmlns="http://www.w3.org/2000/svg">
<g clip-path="url(#clip0_428_32)">
<path d="M22.0822 25.4363C21.7061 25.7816 21.3649 26.17 21.0666 26.5968C15.9073 33.9759 16.708 45.823 21.2746 53.7363C25.6138 61.2555 34.8239 64.1746 42.4295 60.6955L22.0822 25.4363Z" fill="#436850"/>
<path d="M45.0896 59.1604C51.9074 54.316 53.9883 44.8812 49.6491 37.3619C49.2336 36.6419 48.7744 35.9325 48.2757 35.2385L42.8851 55.3403L45.0896 59.1604Z" fill="#436850"/>
<path d="M39.7296 27.3018C38.2979 26.4145 36.7998 25.6557 35.2671 25.0569L32.1395 36.7195L35.5972 42.7113L39.7296 27.3018Z" fill="#436850"/>
<path d="M32.3373 24.1241C30.3118 23.6258 28.2613 23.4293 26.2552 23.6025C25.7364 23.6473 25.2295 23.7484 24.7423 23.9012L29.9685 32.9576L32.3373 24.1241Z" fill="#436850"/>
<path d="M42.408 29.1711L37.7681 46.4732L40.7142 51.5783L45.7768 32.6999L45.8757 32.331C44.8124 31.2007 43.6479 30.139 42.408 29.1711Z" fill="#436850"/>
</g>
<g clip-path="url(#clip1_428_32)">
<path d="M68.747 18.3378C68.1614 18.157 67.5513 18.0395 66.9263 17.9909C56.1187 17.1492 44.1537 25.3359 38.5524 35.0377C33.2299 44.2564 35.6261 55.7372 43.7892 61.5659L68.747 18.3378Z" fill="#436850"/>
<path d="M46.9784 63.4072C56.1079 67.5623 67.2486 63.897 72.571 54.6783C73.0807 53.7956 73.5532 52.8735 73.9863 51.9196L49.6825 58.7237L46.9784 63.4072Z" fill="#436850"/>
<path d="M77.2525 38.0247C77.3352 35.9712 77.2436 33.9277 76.9635 31.947L62.8629 35.8946L58.6217 43.2405L77.2525 38.0247Z" fill="#436850"/>
<path d="M76.2059 28.2922C75.528 25.8564 74.5185 23.5814 73.147 21.5824C72.7924 21.0654 72.3857 20.5958 71.9363 20.1791L65.5258 31.2823L76.2059 28.2922Z" fill="#436850"/>
<path d="M76.8779 41.9961L55.9589 47.8526L52.3453 54.1116L75.1701 47.7215L75.6161 47.5966C76.1724 45.7792 76.5968 43.8982 76.8779 41.9961Z" fill="#436850"/>
</g>
<g clip-path="url(#clip2_428_32)">
<path d="M92.9773 43.7804C92.4538 43.3004 91.8732 42.8746 91.2427 42.5133C80.3425 36.2667 63.7482 38.9006 53.0661 46.2801C42.9159 53.2922 39.726 66.5049 45.3812 76.6613L92.9773 43.7804Z" fill="#436850"/>
<path d="M47.8071 80.1728C55.3051 89.0562 68.7917 90.7482 78.9419 83.7362C79.9138 83.0647 80.8665 82.3336 81.7935 81.5497L52.9638 76.6104L47.8071 80.1728Z" fill="#436850"/>
<path d="M92.1117 68.6196C93.2177 66.5103 94.1362 64.3247 94.8262 62.1113L78.0997 59.2456L70.0115 64.8332L92.1117 68.6196Z" fill="#436850"/>
<path d="M95.847 57.9078C96.3463 55.0204 96.4185 52.1369 95.9745 49.3626C95.8598 48.6451 95.6669 47.9515 95.4032 47.2919L83.1781 55.7374L95.847 57.9078Z" fill="#436850"/>
<path d="M89.7479 72.5928L64.9334 68.3414L58.042 73.1022L85.1173 77.7409L85.6463 77.8315C87.1311 76.2044 88.5093 74.4452 89.7479 72.5928Z" fill="#436850"/>
</g>
<defs>
<clipPath id="clip0_428_32">
<rect width="49.1404" height="49.1404" fill="white" transform="translate(0 33.2563) rotate(-29.9883)"/>
</clipPath>
<clipPath id="clip1_428_32">
<rect width="58.922" height="60.2538" fill="white" transform="translate(47.4419) rotate(30)"/>
</clipPath>
<clipPath id="clip2_428_32">
<rect width="68.2873" height="69.8307" fill="white" transform="translate(79.7689 14) rotate(55.3621)"/>
</clipPath>
</defs>
</svg>
