<svg width="31" height="29" viewBox="0 0 31 29" fill="none" xmlns="http://www.w3.org/2000/svg">
<path d="M27.3686 0H16.6601C16.2208 0 15.8199 0.132439 15.4691 0.341615V23.8072H14.2792V0.341615C13.9284 0.132439 13.5275 4.32463e-08 13.0882 0H2.37966C1.06443 0 0 1.06443 0 2.37966V22.6139C0 23.9292 1.06443 24.9936 2.37966 24.9936H13.0882C13.0999 24.9936 13.1115 24.9912 13.1231 24.9912C13.7552 25.0051 14.2665 25.5164 14.2804 26.1486V27.3733H15.4703V26.7133H15.4818V26.1777C15.4818 25.5352 15.9955 25.0122 16.6345 24.9913C16.6438 24.9913 16.6519 24.9937 16.6601 24.9937H27.3687C28.6839 24.9937 29.7483 23.9292 29.7483 22.614V2.3797C29.7483 1.06443 28.6839 0 27.3686 0Z" fill="white"/>
</svg>
