<svg width="60" height="60" viewBox="0 0 60 60" fill="none" xmlns="http://www.w3.org/2000/svg">
<g clip-path="url(#clip0_304_107)">
<path fill-rule="evenodd" clip-rule="evenodd" d="M3 12H15C16.6568 12 18 13.3432 18 15V57C18 58.6569 16.6568 60 15 60H3C1.34316 60 0 58.6569 0 57V15C0 13.3432 1.34316 12 3 12ZM6 39V51C6 52.6569 7.34316 54 9 54C10.6568 54 12 52.6569 12 51V39C12 37.3431 10.6568 36 9 36C7.34316 36 6 37.3431 6 39ZM24 0H36C37.6569 0 39 1.34316 39 3V57C39 58.6569 37.6569 60 36 60H24C22.3432 60 21 58.6569 21 57V3C21 1.34316 22.3432 0 24 0ZM27 33V51C27 52.6569 28.3431 54 30 54C31.6569 54 33 52.6569 33 51V33C33 31.3431 31.6569 30 30 30C28.3431 30 27 31.3431 27 33ZM45 6H57C58.6569 6 60 7.34316 60 9V57C60 58.6569 58.6569 60 57 60H45C43.3431 60 42 58.6569 42 57V9C42 7.34316 43.3431 6 45 6ZM48 45V51C48 52.6569 49.3431 54 51 54C52.6569 54 54 52.6569 54 51V45C54 43.3431 52.6569 42 51 42C49.3431 42 48 43.3431 48 45Z" fill="#436850"/>
</g>
<defs>
<clipPath id="clip0_304_107">
<rect width="60" height="60" fill="white"/>
</clipPath>
</defs>
</svg>
