<svg width="36" height="28" viewBox="0 0 36 28" fill="none" xmlns="http://www.w3.org/2000/svg">
<rect x="1" y="4" width="34" height="21" fill="#CD8D7A"/>
<path d="M2 1C1.44771 1 1 1.44772 1 2V26.3636C1 26.9159 1.44772 27.3636 2 27.3636H17.1786C17.7309 27.3636 18.1786 26.9159 18.1786 26.3636V2C18.1786 1.44772 17.7309 1 17.1786 1H2ZM12.4524 13.5826C12.4524 13.9136 12.1841 14.1818 11.8532 14.1818H7.32536C6.99445 14.1818 6.72619 13.9136 6.72619 13.5826V13.5826C6.72619 13.2517 6.99445 12.9835 7.32536 12.9835H11.8532C12.1841 12.9835 12.4524 13.2517 12.4524 13.5826V13.5826ZM12.4524 11.186C12.4524 11.5169 12.1841 11.7851 11.8532 11.7851H7.32536C6.99445 11.7851 6.72619 11.5169 6.72619 11.186V11.186C6.72619 10.855 6.99445 10.5868 7.32536 10.5868H11.8532C12.1841 10.5868 12.4524 10.855 12.4524 11.186V11.186ZM12.4524 8.78926C12.4524 9.12017 12.1841 9.38843 11.8532 9.38843H7.32536C6.99445 9.38843 6.72619 9.12017 6.72619 8.78926V8.78926C6.72619 8.45834 6.99445 8.19008 7.32536 8.19008H11.8532C12.1841 8.19008 12.4524 8.45834 12.4524 8.78926V8.78926Z" fill="#F3F3F3"/>
<path d="M19 1C18.4477 1 18 1.44772 18 2V26.3636C18 26.9159 18.4477 27.3636 19 27.3636H34.1786C34.7309 27.3636 35.1786 26.9159 35.1786 26.3636V2C35.1786 1.44772 34.7309 1 34.1786 1H19ZM29.4524 13.5826C29.4524 13.9136 29.1841 14.1818 28.8532 14.1818H24.3254C23.9944 14.1818 23.7262 13.9136 23.7262 13.5826V13.5826C23.7262 13.2517 23.9945 12.9835 24.3254 12.9835H28.8532C29.1841 12.9835 29.4524 13.2517 29.4524 13.5826V13.5826ZM29.4524 11.186C29.4524 11.5169 29.1841 11.7851 28.8532 11.7851H24.3254C23.9944 11.7851 23.7262 11.5169 23.7262 11.186V11.186C23.7262 10.855 23.9945 10.5868 24.3254 10.5868H28.8532C29.1841 10.5868 29.4524 10.855 29.4524 11.186V11.186ZM29.4524 8.78926C29.4524 9.12017 29.1841 9.38843 28.8532 9.38843H24.3254C23.9944 9.38843 23.7262 9.12017 23.7262 8.78926V8.78926C23.7262 8.45834 23.9945 8.19008 24.3254 8.19008H28.8532C29.1841 8.19008 29.4524 8.45834 29.4524 8.78926V8.78926Z" fill="#C2C2C2"/>
</svg>
