<svg width="35" height="35" viewBox="0 0 35 35" fill="none" xmlns="http://www.w3.org/2000/svg">
<path fill-rule="evenodd" clip-rule="evenodd" d="M35 17.5C35 27.1652 27.1652 35 17.5 35C7.83475 35 0 27.1652 0 17.5C0 7.83475 7.83475 0 17.5 0C27.1652 0 35 7.83475 35 17.5ZM26.9833 23.317C27.1661 22.8905 27.172 22.4088 26.9997 21.9779C26.8274 21.547 26.491 21.2022 26.0645 21.0192L19.25 18.0967V7.875C19.25 7.41087 19.0656 6.96575 18.7374 6.63756C18.4092 6.30937 17.9641 6.125 17.5 6.125C17.0359 6.125 16.5908 6.30937 16.2626 6.63756C15.9344 6.96575 15.75 7.41087 15.75 7.875V18.6725C15.75 19.7225 16.3748 20.6727 17.3408 21.0857L24.6855 24.2357C25.112 24.4186 25.5937 24.4245 26.0246 24.2522C26.4555 24.0799 26.8003 23.7435 26.9833 23.317Z" fill="white"/>
</svg>
