<svg width="26" height="26" viewBox="0 0 26 26" fill="none" xmlns="http://www.w3.org/2000/svg">
<path fill-rule="evenodd" clip-rule="evenodd" d="M4.33332 11.9167C4.33332 7.72853 7.7285 4.33335 11.9167 4.33335C16.1048 4.33335 19.5 7.72853 19.5 11.9167C19.5 16.1049 16.1048 19.5 11.9167 19.5C7.7285 19.5 4.33332 16.1049 4.33332 11.9167ZM11.9167 2.16669C6.53188 2.16669 2.16666 6.53191 2.16666 11.9167C2.16666 17.3015 6.53188 21.6667 11.9167 21.6667C14.2187 21.6667 16.3345 20.8688 18.0025 19.5346L21.984 23.516C22.407 23.9391 23.093 23.9391 23.516 23.516C23.9391 23.093 23.9391 22.407 23.516 21.984L19.5345 18.0025C20.8688 16.3345 21.6667 14.2188 21.6667 11.9167C21.6667 6.53191 17.3015 2.16669 11.9167 2.16669Z" fill="black"/>
</svg>
