<svg width="128" height="128" viewBox="0 0 128 128" fill="none" xmlns="http://www.w3.org/2000/svg">
<rect width="128" height="128" rx="64" fill="#FBFADA"/>
<g clip-path="url(#clip0_428_2)">
<path d="M27.0822 34.4363C26.7061 34.7816 26.3649 35.17 26.0666 35.5968C20.9073 42.9759 21.708 54.823 26.2746 62.7363C30.6138 70.2555 39.8239 73.1746 47.4295 69.6955L27.0822 34.4363Z" fill="#436850"/>
<path d="M50.0896 68.1604C56.9074 63.316 58.9883 53.8812 54.6491 46.3619C54.2336 45.6419 53.7744 44.9325 53.2757 44.2385L47.8851 64.3403L50.0896 68.1604Z" fill="#436850"/>
<path d="M44.7296 36.3018C43.2979 35.4145 41.7998 34.6557 40.2671 34.0569L37.1395 45.7195L40.5972 51.7113L44.7296 36.3018Z" fill="#436850"/>
<path d="M37.3373 33.1241C35.3118 32.6258 33.2613 32.4293 31.2552 32.6025C30.7364 32.6473 30.2295 32.7484 29.7423 32.9012L34.9685 41.9576L37.3373 33.1241Z" fill="#436850"/>
<path d="M47.408 38.1711L42.7681 55.4732L45.7142 60.5783L50.7768 41.6999L50.8757 41.331C49.8124 40.2007 48.6479 39.139 47.408 38.1711Z" fill="#436850"/>
</g>
<g clip-path="url(#clip1_428_2)">
<path d="M73.747 27.3378C73.1614 27.157 72.5513 27.0395 71.9263 26.9909C61.1187 26.1492 49.1537 34.3359 43.5524 44.0377C38.2299 53.2564 40.6261 64.7372 48.7892 70.5659L73.747 27.3378Z" fill="#436850"/>
<path d="M51.9784 72.4072C61.1079 76.5623 72.2486 72.897 77.571 63.6783C78.0807 62.7956 78.5532 61.8735 78.9863 60.9196L54.6825 67.7237L51.9784 72.4072Z" fill="#436850"/>
<path d="M82.2525 47.0247C82.3352 44.9712 82.2436 42.9277 81.9635 40.947L67.8629 44.8946L63.6217 52.2405L82.2525 47.0247Z" fill="#436850"/>
<path d="M81.2059 37.2922C80.528 34.8564 79.5185 32.5814 78.147 30.5824C77.7924 30.0654 77.3857 29.5958 76.9363 29.1791L70.5258 40.2823L81.2059 37.2922Z" fill="#436850"/>
<path d="M81.8779 50.9961L60.9589 56.8526L57.3453 63.1116L80.1701 56.7215L80.6161 56.5966C81.1724 54.7792 81.5968 52.8982 81.8779 50.9961Z" fill="#436850"/>
</g>
<g clip-path="url(#clip2_428_2)">
<path d="M97.9773 52.7804C97.4538 52.3004 96.8732 51.8746 96.2427 51.5133C85.3425 45.2667 68.7482 47.9006 58.0661 55.2801C47.9159 62.2922 44.726 75.5049 50.3812 85.6613L97.9773 52.7804Z" fill="#436850"/>
<path d="M52.8071 89.1728C60.3051 98.0562 73.7917 99.7482 83.9419 92.7362C84.9138 92.0647 85.8665 91.3336 86.7935 90.5497L57.9638 85.6104L52.8071 89.1728Z" fill="#436850"/>
<path d="M97.1117 77.6196C98.2177 75.5103 99.1362 73.3247 99.8262 71.1113L83.0997 68.2456L75.0115 73.8332L97.1117 77.6196Z" fill="#436850"/>
<path d="M100.847 66.9078C101.346 64.0204 101.418 61.1369 100.975 58.3626C100.86 57.6451 100.667 56.9515 100.403 56.2919L88.1781 64.7374L100.847 66.9078Z" fill="#436850"/>
<path d="M94.7479 81.5928L69.9334 77.3414L63.042 82.1022L90.1173 86.7409L90.6463 86.8315C92.1311 85.2044 93.5093 83.4452 94.7479 81.5928Z" fill="#436850"/>
</g>
<defs>
<clipPath id="clip0_428_2">
<rect width="49.1404" height="49.1404" fill="white" transform="translate(5 42.2563) rotate(-29.9883)"/>
</clipPath>
<clipPath id="clip1_428_2">
<rect width="58.922" height="60.2538" fill="white" transform="translate(52.4419 9) rotate(30)"/>
</clipPath>
<clipPath id="clip2_428_2">
<rect width="68.2873" height="69.8307" fill="white" transform="translate(84.7689 23) rotate(55.3621)"/>
</clipPath>
</defs>
</svg>
